# xmcd CD database file
#
# Track frame offsets:
#	182
#	26120
#	53487
#	81510
#	89747
#	115177
#	143830
#	161532
#
# Disc length: 2591 seconds
#
# Revision: 0
# Processed by: cddbd v1.5PL3 Copyright (c) Steve Scherf et al.
# Submitted via: CDex 1.51
#
DISCID=670a1d08
DTITLE=Jim Mullen - Thumbs Up
DYEAR=1983
DGENRE=Jazz
TTITLE0=Blue Montreux
TTITLE1=Fall
TTITLE2=As If You Read My Mind
TTITLE3=Crespescule
TTITLE4=Thumbs Up
TTITLE5=Herbal Scent
TTITLE6=Friends
TTITLE7=Beauty And The Beast
EXTD=YEAR: 1983
EXTT0=
EXTT1=
EXTT2=
EXTT3=
EXTT4=
EXTT5=
EXTT6=
EXTT7=
PLAYORDER=
